<?xml version="1.0" encoding="UTF-8"?>
<svg id="Ebene_1" xmlns="http://www.w3.org/2000/svg" version="1.1" viewBox="0 0 283.5 56.7">
  <!-- Generator: Adobe Illustrator 29.1.0, SVG Export Plug-In . SVG Version: 2.1.0 Build 142)  -->
  <defs>
    <style>
      .st0 {
        fill: #705137;
      }
    </style>
  </defs>
  <path class="st0" d="M18.1,36.4c3.6,0,4.3-2.8,4.3-5.8V6.2h6.2v24c0,7.4-3.3,11.3-10.5,11.3s-10.6-3.6-10.7-9.9v-2.4h5.9v1.9c.2,3,1.6,5.2,4.8,5.2Z"/>
  <path class="st0" d="M33.4,28.2c0-8,5.7-13.2,13-13.2s13,5.2,13,13.2-5.6,13.3-13,13.3-13-5.3-13-13.3ZM46.4,36.7c4.4,0,7.2-3.8,7.2-8.5s-2.9-8.5-7.2-8.5-7.2,3.8-7.2,8.5,2.9,8.5,7.2,8.5Z"/>
  <path class="st0" d="M72.9,19.5c-2.2,0-4,1.2-4,2.9s1.4,2.7,4.1,3.3c1.1.3,2.2.5,3.3.9,4.2,1.1,7.2,3.1,7.2,7.1s-4.8,7.9-10.4,7.9-10-2.4-10.7-8.4h5.8c.5,2.7,2.1,3.9,4.9,3.9s4.5-1,4.5-3.2-1.9-2.6-3.9-3.2c-1.2-.3-2.4-.6-3.6-1-4.1-1.1-6.9-3.4-6.9-7.3s4.4-7.5,9.7-7.5,9.6,2.8,10.2,8.2h-5.6c-.3-2.7-2.4-3.7-4.7-3.7Z"/>
  <path class="st0" d="M99.4,41.5c-7.6,0-12.8-5.4-12.8-13.3s5.4-13.2,12.8-13.2,12.2,6.5,12.2,13.8c0,.2,0,.7,0,1.1h-19.2c.5,4.2,3.2,6.8,7,6.8s5.1-1,6-3.3h5.9c-1.5,5-5.8,8.1-11.8,8.1ZM105.9,25.8c-.4-3.4-2.4-6.3-6.5-6.3s-6.4,2.5-7,6.3h13.5Z"/>
  <path class="st0" d="M142.1,28.2c0,8-4.9,13.2-11.7,13.2s-6.9-2.7-7.8-4.8h0v13.8h-6.2V15.7h6.1v4.3h0c.8-2.2,3.5-5,7.9-5,6.8,0,11.7,5.2,11.7,13.1ZM129.2,36.7c4.7,0,7.1-3.7,7.1-8.5s-2.5-8.4-7.1-8.4-7.1,4.1-7.1,8.4,2.3,8.5,7.1,8.5Z"/>
  <path class="st0" d="M146.7,6.2h5.8v13.9c1.4-2.9,3.6-5,7.5-5,6.5,0,9,4.3,9,10.2v15.5h-5.9v-14.2c0-3.8-1.2-6.4-4.7-6.4s-5.8,3-5.8,9.2v11.4h-6V6.2Z"/>
  <path class="st0" d="M186.8,6.2h12.3c6.8,0,11.5,3.1,11.5,9.2s-1.9,6.3-5.7,7.7h0c3.8.8,7,3.1,7,7.9,0,7-5.1,9.8-13,9.8h-12.1V6.2ZM198.1,20.8c4.1,0,6.4-1.4,6.4-5s-2.3-4.6-6.1-4.6h-5.4v9.6h5.1ZM198.7,35.7c4.3,0,7.1-1.4,7.1-5.1s-2.6-4.9-6.4-4.9h-6.4v10h5.7Z"/>
  <path class="st0" d="M223,20.3c1.4-3.4,4-4.8,7.6-4.8v5.6c-.3,0-1.9,0-2.8.3-2.3.5-4.7,1.7-4.7,8v11.4h-6V15.7h5.8v4.6Z"/>
  <path class="st0" d="M232.9,28.2c0-8,5.7-13.2,13-13.2s13,5.2,13,13.2-5.6,13.3-13,13.3-13-5.3-13-13.3ZM246,36.7c4.4,0,7.2-3.8,7.2-8.5s-2.9-8.5-7.2-8.5-7.2,3.8-7.2,8.5,2.9,8.5,7.2,8.5Z"/>
  <path class="st0" d="M274.3,36.2h1.6v4.8h-2.9c-6,0-7.8-3.5-7.8-8.3v-12.3h-4v-4.6h4v-5.7l5.8-2.6v8.3h4.9v4.6h-4.9v11.5c0,2.8.7,4.4,3.2,4.4Z"/>
</svg>